<?xml version="1.0" standalone="no"?><svg xmlns="http://www.w3.org/2000/svg" viewBox="0 0 1440 320"><path fill="#FF9A00" fill-opacity="1" d="M0,288L13.3,245.3C26.7,203,53,117,80,90.7C106.7,64,133,96,160,112C186.7,128,213,128,240,112C266.7,96,293,64,320,74.7C346.7,85,373,139,400,186.7C426.7,235,453,277,480,266.7C506.7,256,533,192,560,154.7C586.7,117,613,107,640,90.7C666.7,75,693,53,720,74.7C746.7,96,773,160,800,165.3C826.7,171,853,117,880,122.7C906.7,128,933,192,960,213.3C986.7,235,1013,213,1040,192C1066.7,171,1093,149,1120,138.7C1146.7,128,1173,128,1200,106.7C1226.7,85,1253,43,1280,48C1306.7,53,1333,107,1360,154.7C1386.7,203,1413,245,1427,266.7L1440,288L1440,0L1426.7,0C1413.3,0,1387,0,1360,0C1333.3,0,1307,0,1280,0C1253.3,0,1227,0,1200,0C1173.3,0,1147,0,1120,0C1093.3,0,1067,0,1040,0C1013.3,0,987,0,960,0C933.3,0,907,0,880,0C853.3,0,827,0,800,0C773.3,0,747,0,720,0C693.3,0,667,0,640,0C613.3,0,587,0,560,0C533.3,0,507,0,480,0C453.3,0,427,0,400,0C373.3,0,347,0,320,0C293.3,0,267,0,240,0C213.3,0,187,0,160,0C133.3,0,107,0,80,0C53.3,0,27,0,13,0L0,0Z"></path></svg>